<?xml version="1.0" encoding="UTF-8"?>
<!DOCTYPE svg PUBLIC "-//W3C//DTD SVG 1.1//EN" "http://www.w3.org/Graphics/SVG/1.1/DTD/svg11.dtd">
<svg version="1.1" xmlns="http://www.w3.org/2000/svg" xmlns:xlink="http://www.w3.org/1999/xlink" width="100" height="100"  xml:space="preserve" id="logo">
    <!-- Generated by PaintCode (www.paintcodeapp.com) -->
    <defs>
        <linearGradient id="logo-tickgradient-rectangle2" x1="0.5" y1="-42" x2="0.5" y2="-28.5" gradientUnits="userSpaceOnUse" >
            <stop offset="0.06" stop-color="rgb(0, 0, 0)" stop-opacity="0" />
            <stop offset="0.65" stop-color="rgb(22, 22, 22)" stop-opacity="0.5" />
            <stop offset="1" stop-color="rgb(43, 43, 43)" stop-opacity="1" />
        </linearGradient>
        <linearGradient id="logo-tickgradient-rectangle3" x1="0.5" y1="-42" x2="0.5" y2="-28.5" gradientUnits="userSpaceOnUse" >
            <stop offset="0.06" stop-color="rgb(0, 0, 0)" stop-opacity="0" />
            <stop offset="0.65" stop-color="rgb(22, 22, 22)" stop-opacity="0.5" />
            <stop offset="1" stop-color="rgb(43, 43, 43)" stop-opacity="1" />
        </linearGradient>
        <linearGradient id="logo-tickgradient-rectangle4" x1="0.5" y1="-42" x2="0.5" y2="-28.5" gradientUnits="userSpaceOnUse" >
            <stop offset="0.06" stop-color="rgb(0, 0, 0)" stop-opacity="0" />
            <stop offset="0.65" stop-color="rgb(22, 22, 22)" stop-opacity="0.5" />
            <stop offset="1" stop-color="rgb(43, 43, 43)" stop-opacity="1" />
        </linearGradient>
        <linearGradient id="logo-tickgradient-rectangle5" x1="0.5" y1="-42" x2="0.5" y2="-28.5" gradientUnits="userSpaceOnUse" >
            <stop offset="0.06" stop-color="rgb(0, 0, 0)" stop-opacity="0" />
            <stop offset="0.65" stop-color="rgb(22, 22, 22)" stop-opacity="0.5" />
            <stop offset="1" stop-color="rgb(43, 43, 43)" stop-opacity="1" />
        </linearGradient>
        <linearGradient id="logo-tickgradient-rectangle6" x1="0.5" y1="-42" x2="0.5" y2="-28.5" gradientUnits="userSpaceOnUse" >
            <stop offset="0.06" stop-color="rgb(0, 0, 0)" stop-opacity="0" />
            <stop offset="0.65" stop-color="rgb(22, 22, 22)" stop-opacity="0.5" />
            <stop offset="1" stop-color="rgb(43, 43, 43)" stop-opacity="1" />
        </linearGradient>
        <linearGradient id="logo-tickgradient-rectangle7" x1="0.5" y1="-42" x2="0.5" y2="-28.5" gradientUnits="userSpaceOnUse" >
            <stop offset="0.06" stop-color="rgb(0, 0, 0)" stop-opacity="0" />
            <stop offset="0.65" stop-color="rgb(22, 22, 22)" stop-opacity="0.5" />
            <stop offset="1" stop-color="rgb(43, 43, 43)" stop-opacity="1" />
        </linearGradient>
        <linearGradient id="logo-tickgradient-rectangle8" x1="0.5" y1="-42" x2="0.5" y2="-28.5" gradientUnits="userSpaceOnUse" >
            <stop offset="0.06" stop-color="rgb(0, 0, 0)" stop-opacity="0" />
            <stop offset="0.65" stop-color="rgb(22, 22, 22)" stop-opacity="0.5" />
            <stop offset="1" stop-color="rgb(43, 43, 43)" stop-opacity="1" />
        </linearGradient>
    </defs>
    <rect id="logo-rectangle" stroke="none" fill="rgb(238, 238, 238)" x="0" y="0" width="100" height="100" />
    <g id="logo-group2" transform="translate(-22.2, -20.28)" >
        <g id="logo-group" transform="" >
            <g id="logo-group3" transform="translate(71.2, 72.28) rotate(50.5)" >
                <rect id="logo-rectangle2" stroke="none" fill="url(#logo-tickgradient-rectangle2)" x="-1" y="-42" width="3" height="13.5" />
            </g>
            <g id="logo-group4" transform="translate(71.2, 72.28) rotate(101)" >
                <rect id="logo-rectangle3" stroke="none" fill="url(#logo-tickgradient-rectangle3)" x="-1" y="-42" width="3" height="13.5" />
            </g>
            <g id="logo-group5" transform="translate(71.2, 72.28) rotate(152)" >
                <rect id="logo-rectangle4" stroke="none" fill="url(#logo-tickgradient-rectangle4)" x="-1" y="-42" width="3" height="13.5" />
            </g>
            <g id="logo-group6" transform="translate(71.2, 72.28) rotate(-155.5)" >
                <rect id="logo-rectangle5" stroke="none" fill="url(#logo-tickgradient-rectangle5)" x="-1" y="-42" width="3" height="13.5" />
            </g>
            <g id="logo-group7" transform="translate(71.2, 72.28) rotate(-103.5)" >
                <rect id="logo-rectangle6" stroke="none" fill="url(#logo-tickgradient-rectangle6)" x="-1" y="-42" width="3" height="13.5" />
            </g>
            <g id="logo-group8" transform="translate(71.2, 72.28) rotate(-51.5)" >
                <rect id="logo-rectangle7" stroke="none" fill="url(#logo-tickgradient-rectangle7)" x="-1" y="-42" width="3" height="13.5" />
            </g>
            <g id="logo-group9" transform="translate(71.2, 72.28)" >
                <rect id="logo-rectangle8" stroke="none" fill="url(#logo-tickgradient-rectangle8)" x="-1" y="-42" width="3" height="13.5" />
            </g>
        </g>
        <path id="logo-hair" stroke="none" fill="rgb(43, 43, 43)" fill-opacity="0.8" d="M 105.2,71.58 L 105.2,71.89 C 105.12,80.36 101.91,88.07 96.69,93.9 95.36,92.66 93.67,91.05 93.67,91.05 97.9,85.96 100.44,79.39 100.44,72.22 100.44,56.01 87.42,42.87 71.37,42.87 70.95,42.87 70.54,42.88 70.12,42.9 70.12,42.9 70.12,40.21 70.12,38.35 70.81,38.31 71.5,38.28 72.2,38.28 90.42,38.28 105.2,53.19 105.2,71.58 Z M 105.2,71.58" />
        <circle id="logo-face" stroke="rgb(43, 43, 43)" stroke-width="3" fill="none" cx="71.2" cy="72.28" r="28" />
        <path id="logo-smile" stroke="none" fill="rgb(43, 43, 43)" d="M 83.44,81.93 C 79.91,86.27 74.57,89.03 68.6,89.03 63.61,89.03 58.97,87.2 55.64,83.94 54.41,82.74 52.43,84.07 54.34,85.72 58.41,89.25 63.63,91.47 69.4,91.47 76.08,91.47 82.09,88.56 86.27,83.92 87.49,82.48 85.01,80.09 83.44,81.93 Z M 83.44,81.93" />
        <circle id="logo-eyeright" stroke="none" fill="rgb(43, 43, 43)" cx="77.3" cy="67.01" r="2.45" />
        <circle id="logo-eyeleft" stroke="none" fill="rgb(43, 43, 43)" cx="59" cy="64.59" r="2.45" />
    </g>
</svg>
